{"title":"Saving.Mr.Banks.2013.DVDScr.XVID.AC3.HQ.Hive-CM8 [P2PDL]","uid":9391734,"size":1569247731,"categoryP":"video","categoryS":"movies","magnet":"?xt=urn:btih:821482c266002a06e242c671c8b352129bab0447&amp;dn=Saving.Mr.Banks.2013.DVDScr.XVID.AC3.HQ.Hive-CM8+%5BP2PDL%5D&amp;tr=udp%3A%2F%2Ftracker.openbittorrent.com%3A80&amp;tr=udp%3A%2F%2Fopen.demonii.com%3A1337&amp;tr=udp%3A%2F%2Ftracker.coppersurfer.tk%3A6969&amp;tr=udp%3A%2F%2Fexodus.desync.com%3A6969","seeders":1,"leechers":0,"uploader":"ValidusVyto","files":4,"time":1387895469,"description":"Saving.Mr.Banks.2013.DVDScr.XVID.AC3.HQ.Hive-CM8\n\nInfo:\nGeneral\nComplete name                            : Saving.Mr.Banks.2013.DVDScr.XVID.AC3.HQ.Hive-CM8/Saving.Mr.Banks.2013.DVDScr.XVID.AC3.HQ.Hive-CM8.avi\nFormat                                   : AVI\nFormat/Info                              : Audio Video Interleave\nFile size                                : 1.45 GiB\nDuration                                 : 2h 4mn\nOverall bit rate                         : 1 664 Kbps\nWriting application                      : Nandub v1.0rc2\nWriting library                          : Nandub build 1853/release\n\nVideo\nID                                       : 0\nFormat                                   : MPEG-4 Visual\nFormat profile                           : Advanced Simple@L5\nFormat settings, BVOP                    : 2\nFormat settings, QPel                    : Yes\nFormat settings, GMC                     : No warppoints\nFormat settings, Matrix                  : Default (H.263)\nMuxing mode                              : Packed bitstream\nCodec ID                                 : XVID\nCodec ID/Hint                            : XviD\nDuration                                 : 2h 4mn\nBit rate                                 : 1 399 Kbps\nWidth                                    : 720 pixels\nHeight                                   : 304 pixels\nDisplay aspect ratio                     : 2.35:1\nFrame rate                               : 23.976 fps\nColor space                              : YUV\nChroma subsampling                       : 4:2:0\nBit depth                                : 8 bits\nScan type                                : Progressive\nCompression mode                         : Lossy\nBits/(Pixel*Frame)                       : 0.267\nStream size                              : 1.22 GiB (84%)\nWriting library                          : XviD 1.2.1 (UTC 2008-12-04)\n\nAudio\nID                                       : 1\nFormat                                   : AC-3\nFormat/Info                              : Audio Coding 3\nMode extension                           : CM (complete main)\nFormat settings, Endianness              : Big\nCodec ID                                 : 2000\nDuration                                 : 2h 4mn\nBit rate mode                            : Constant\nBit rate                                 : 256 Kbps\nChannel(s)                               : 2 channels\nChannel positions                        : Front: L R\nSampling rate                            : 48.0 KHz\nBit depth                                : 16 bits\nCompression mode                         : Lossy\nStream size                              : 229 MiB (15%)\nAlignment                                : Split accross interleaves\nInterleave, duration                     : 42 ms (1.00 video frame)\nInterleave, preload duration             : 500 ms\n\n\n","torrent":{"xt":"urn:btih:821482c266002a06e242c671c8b352129bab0447","amp;dn":"Saving.Mr.Banks.2013.DVDScr.XVID.AC3.HQ.Hive-CM8+%5BP2PDL%5D","amp;tr":["udp%3A%2F%2Ftracker.openbittorrent.com%3A80","udp%3A%2F%2Fopen.demonii.com%3A1337","udp%3A%2F%2Ftracker.coppersurfer.tk%3A6969","udp%3A%2F%2Fexodus.desync.com%3A6969"],"infoHash":"821482c266002a06e242c671c8b352129bab0447","infoHashBuffer":{"type":"Buffer","data":[130,20,130,194,102,0,42,6,226,66,198,113,200,179,82,18,155,171,4,71]},"announce":[],"urlList":[]}}